<svg version="1.1" id="Layer_1" xmlns="http://www.w3.org/2000/svg" xmlns:xlink="http://www.w3.org/1999/xlink" x="0px" y="0px"
	 width="100%" viewBox="0 0 512 512" enable-background="new 0 0 512 512" xml:space="preserve">
<path fill="#FFC107" opacity="1.000000" stroke="none" 
	d="
M0.999999,270.000000 
	C1.000000,261.645752 1.000000,253.291534 1.271437,244.803345 
	C2.037709,244.051041 2.734264,243.508011 2.997374,242.803177 
	C7.533038,230.652908 16.521841,222.170410 26.235308,214.214172 
	C34.723763,207.261353 43.109119,200.178635 51.382835,192.972809 
	C52.416172,192.072845 53.117702,189.968002 52.897636,188.593597 
	C51.874905,182.206116 50.765282,175.803894 49.148399,169.546036 
	C45.517723,155.494110 40.788994,141.646652 42.012421,126.805344 
	C42.919575,115.800682 47.084042,106.119453 55.671043,99.131088 
	C66.129379,90.619774 78.975594,88.108925 92.019333,87.082520 
	C101.573227,86.330742 111.205925,86.593559 120.764359,85.879974 
	C124.976700,85.565506 130.020859,85.890236 132.679810,81.551422 
	C134.864029,77.987251 136.504288,74.035980 137.988876,70.106400 
	C143.456406,55.634403 147.541504,40.532764 157.039673,27.908390 
	C161.730026,21.674294 167.719986,17.004007 174.977341,13.938589 
	C187.691986,8.568090 200.197464,10.580475 211.696564,16.570200 
	C223.135345,22.528519 233.559204,30.405857 244.681168,37.015919 
	C249.322128,39.774155 254.036301,44.372124 260.066864,41.818462 
	C265.399872,39.560181 270.299377,36.232227 275.277649,33.192066 
	C284.538391,27.536669 293.341736,20.986746 303.024872,16.205292 
	C315.188904,10.198795 327.985016,8.614443 341.028442,14.925020 
	C355.363251,21.860407 362.309875,34.486969 367.947144,48.236618 
	C372.233826,58.692181 376.032715,69.351913 380.506836,79.723145 
	C381.453217,81.916893 384.193695,84.377808 386.448120,84.773102 
	C393.522675,86.013557 400.753418,86.405510 407.935333,86.980560 
	C417.271179,87.728058 426.799927,87.416122 435.918182,89.217690 
	C449.847198,91.969765 461.827301,98.236694 468.115204,112.334785 
	C474.000458,125.530037 472.654388,138.797195 469.377258,152.141907 
	C466.912628,162.177963 463.851746,172.070328 461.504608,182.131256 
	C460.484894,186.502319 459.630310,191.177261 464.199860,194.787231 
	C472.533783,201.370987 480.776215,208.084076 488.819214,215.018768 
	C497.497437,222.501144 506.276581,229.977112 510.184753,241.405319 
	C510.547791,242.466980 512.034851,243.144257 513.000000,244.000000 
	C513.000000,252.354233 513.000000,260.708466 512.730347,269.194397 
	C511.888214,270.090454 511.075256,270.772278 510.780518,271.631866 
	C507.996674,279.750763 502.875336,286.308075 496.562103,291.820709 
	C488.203156,299.119690 479.445343,305.961151 470.877899,313.022247 
	C464.398407,318.362488 458.134155,323.379211 461.823914,333.687195 
	C465.077820,342.777496 466.924530,352.373810 469.350616,361.757568 
	C472.298065,373.157959 473.788300,384.727173 470.263855,396.175201 
	C464.354004,415.371490 450.799500,422.685150 430.766937,425.773895 
	C418.604950,427.649078 406.104340,427.320679 393.757080,428.004517 
	C387.154449,428.370148 381.487213,429.596771 378.842102,437.174774 
	C374.643311,449.204010 369.914337,461.070862 364.876740,472.777100 
	C361.110870,481.528015 355.713226,489.312408 347.821075,495.030792 
	C333.159149,505.654297 317.529419,505.354980 302.259552,497.425293 
	C290.818359,491.483856 280.413177,483.577393 269.297455,476.964813 
	C264.657104,474.204315 259.933899,469.631439 253.912613,472.183838 
	C248.581909,474.443512 243.639252,477.705688 238.720108,480.831818 
	C226.738770,488.445984 215.702026,497.601044 201.461029,501.278503 
	C191.904922,503.746155 182.914139,503.442108 173.862488,499.458801 
	C158.874969,492.863220 151.878296,479.761169 146.065262,465.742523 
	C141.802917,455.463531 138.028290,444.983337 133.897263,434.648346 
	C132.542343,431.258667 130.127029,429.158752 126.104752,428.942505 
	C116.922050,428.448761 107.764137,427.354858 98.579018,427.082397 
	C88.218132,426.775055 78.049835,425.683350 68.334839,421.954865 
	C58.814327,418.301025 51.116898,412.593231 46.437126,403.060455 
	C40.697166,391.368042 40.860626,379.278809 43.531258,367.121826 
	C46.128807,355.297577 49.661846,343.681824 52.511299,331.908478 
	C53.688663,327.043884 53.957039,322.284393 49.124111,318.526398 
	C41.119530,312.302185 33.422146,305.682281 25.610193,299.211151 
	C16.486052,291.653046 7.749036,283.790192 3.530937,272.189087 
	C3.198097,271.273651 1.867108,270.721161 0.999999,270.000000 
M280.015167,289.515167 
	C303.809601,265.721497 327.470490,241.791885 351.470551,218.207443 
	C359.939941,209.884750 359.904785,196.939301 351.380371,188.647308 
	C342.997253,180.492813 329.282959,181.970093 322.288757,189.073669 
	C298.564362,213.169083 274.528717,236.957977 250.628845,260.880798 
	C243.945923,267.570099 237.321014,274.317383 230.583649,281.124817 
	C217.839020,268.363342 205.394287,255.839294 192.875015,243.390167 
	C185.454865,236.011581 176.963974,234.128265 168.484985,237.895935 
	C156.269470,243.323975 150.316635,259.307007 162.994751,272.354187 
	C180.289825,290.152710 198.001450,307.547455 215.594818,325.054688 
	C224.411072,333.827759 237.394012,332.351349 244.547775,325.012207 
	C256.057556,313.204193 267.845032,301.666870 280.015167,289.515167 
z"/>
<path fill="#000000" opacity="1.000000" stroke="none" 
	d="
M0.999999,270.468658 
	C1.867108,270.721161 3.198097,271.273651 3.530937,272.189087 
	C7.749036,283.790192 16.486052,291.653046 25.610193,299.211151 
	C33.422146,305.682281 41.119530,312.302185 49.124111,318.526398 
	C53.957039,322.284393 53.688663,327.043884 52.511299,331.908478 
	C49.661846,343.681824 46.128807,355.297577 43.531258,367.121826 
	C40.860626,379.278809 40.697166,391.368042 46.437126,403.060455 
	C51.116898,412.593231 58.814327,418.301025 68.334839,421.954865 
	C78.049835,425.683350 88.218132,426.775055 98.579018,427.082397 
	C107.764137,427.354858 116.922050,428.448761 126.104752,428.942505 
	C130.127029,429.158752 132.542343,431.258667 133.897263,434.648346 
	C138.028290,444.983337 141.802917,455.463531 146.065262,465.742523 
	C151.878296,479.761169 158.874969,492.863220 173.862488,499.458801 
	C182.914139,503.442108 191.904922,503.746155 201.461029,501.278503 
	C215.702026,497.601044 226.738770,488.445984 238.720108,480.831818 
	C243.639252,477.705688 248.581909,474.443512 253.912613,472.183838 
	C259.933899,469.631439 264.657104,474.204315 269.297455,476.964813 
	C280.413177,483.577393 290.818359,491.483856 302.259552,497.425293 
	C317.529419,505.354980 333.159149,505.654297 347.821075,495.030792 
	C355.713226,489.312408 361.110870,481.528015 364.876740,472.777100 
	C369.914337,461.070862 374.643311,449.204010 378.842102,437.174774 
	C381.487213,429.596771 387.154449,428.370148 393.757080,428.004517 
	C406.104340,427.320679 418.604950,427.649078 430.766937,425.773895 
	C450.799500,422.685150 464.354004,415.371490 470.263855,396.175201 
	C473.788300,384.727173 472.298065,373.157959 469.350616,361.757568 
	C466.924530,352.373810 465.077820,342.777496 461.823914,333.687195 
	C458.134155,323.379211 464.398407,318.362488 470.877899,313.022247 
	C479.445343,305.961151 488.203156,299.119690 496.562103,291.820709 
	C502.875336,286.308075 507.996674,279.750763 510.780518,271.631866 
	C511.075256,270.772278 511.888214,270.090454 512.730347,269.663086 
	C513.000000,350.964478 513.000000,431.928955 513.000000,512.946716 
	C342.443726,512.946716 171.887421,512.946716 1.000000,512.946716 
	C1.000000,432.312744 1.000000,351.625031 0.999999,270.468658 
z"/>
<path fill="#000000" opacity="1.000000" stroke="none" 
	d="
M513.000000,243.531342 
	C512.034851,243.144257 510.547791,242.466980 510.184753,241.405319 
	C506.276581,229.977112 497.497437,222.501144 488.819214,215.018768 
	C480.776215,208.084076 472.533783,201.370987 464.199860,194.787231 
	C459.630310,191.177261 460.484894,186.502319 461.504608,182.131256 
	C463.851746,172.070328 466.912628,162.177963 469.377258,152.141907 
	C472.654388,138.797195 474.000458,125.530037 468.115204,112.334785 
	C461.827301,98.236694 449.847198,91.969765 435.918182,89.217690 
	C426.799927,87.416122 417.271179,87.728058 407.935333,86.980560 
	C400.753418,86.405510 393.522675,86.013557 386.448120,84.773102 
	C384.193695,84.377808 381.453217,81.916893 380.506836,79.723145 
	C376.032715,69.351913 372.233826,58.692181 367.947144,48.236618 
	C362.309875,34.486969 355.363251,21.860407 341.028442,14.925020 
	C327.985016,8.614443 315.188904,10.198795 303.024872,16.205292 
	C293.341736,20.986746 284.538391,27.536669 275.277649,33.192066 
	C270.299377,36.232227 265.399872,39.560181 260.066864,41.818462 
	C254.036301,44.372124 249.322128,39.774155 244.681168,37.015919 
	C233.559204,30.405857 223.135345,22.528519 211.696564,16.570200 
	C200.197464,10.580475 187.691986,8.568090 174.977341,13.938589 
	C167.719986,17.004007 161.730026,21.674294 157.039673,27.908390 
	C147.541504,40.532764 143.456406,55.634403 137.988876,70.106400 
	C136.504288,74.035980 134.864029,77.987251 132.679810,81.551422 
	C130.020859,85.890236 124.976700,85.565506 120.764359,85.879974 
	C111.205925,86.593559 101.573227,86.330742 92.019333,87.082520 
	C78.975594,88.108925 66.129379,90.619774 55.671043,99.131088 
	C47.084042,106.119453 42.919575,115.800682 42.012421,126.805344 
	C40.788994,141.646652 45.517723,155.494110 49.148399,169.546036 
	C50.765282,175.803894 51.874905,182.206116 52.897636,188.593597 
	C53.117702,189.968002 52.416172,192.072845 51.382835,192.972809 
	C43.109119,200.178635 34.723763,207.261353 26.235308,214.214172 
	C16.521841,222.170410 7.533038,230.652908 2.997374,242.803177 
	C2.734264,243.508011 2.037709,244.051041 1.271437,244.334686 
	C1.000000,163.035507 1.000000,82.071007 1.000000,1.053257 
	C171.556335,1.053257 342.112701,1.053257 513.000000,1.053257 
	C513.000000,81.687256 513.000000,162.374969 513.000000,243.531342 
z"/>
<path fill="#000000" opacity="1.000000" stroke="none" 
	d="
M279.765167,289.765167 
	C267.845032,301.666870 256.057556,313.204193 244.547775,325.012207 
	C237.394012,332.351349 224.411072,333.827759 215.594818,325.054688 
	C198.001450,307.547455 180.289825,290.152710 162.994751,272.354187 
	C150.316635,259.307007 156.269470,243.323975 168.484985,237.895935 
	C176.963974,234.128265 185.454865,236.011581 192.875015,243.390167 
	C205.394287,255.839294 217.839020,268.363342 230.583649,281.124817 
	C237.321014,274.317383 243.945923,267.570099 250.628845,260.880798 
	C274.528717,236.957977 298.564362,213.169083 322.288757,189.073669 
	C329.282959,181.970093 342.997253,180.492813 351.380371,188.647308 
	C359.904785,196.939301 359.939941,209.884750 351.470551,218.207443 
	C327.470490,241.791885 303.809601,265.721497 279.765167,289.765167 
z"/>
</svg>