<svg version="1.1" id="Layer_1" xmlns="http://www.w3.org/2000/svg" xmlns:xlink="http://www.w3.org/1999/xlink" x="0px" y="0px"
	 width="100%" viewBox="0 0 960 671" enable-background="new 0 0 960 671" xml:space="preserve">
<path fill="#010000" opacity="1.000000" stroke="none" 
	d="
M576.000000,672.000000 
	C384.000061,672.000000 192.500107,672.000000 1.000129,672.000000 
	C1.000086,448.333466 1.000086,224.666916 1.000043,1.000278 
	C320.999786,1.000186 640.999573,1.000186 960.999512,1.000093 
	C960.999634,224.666382 960.999634,448.332764 960.999817,671.999573 
	C832.833313,672.000000 704.666687,672.000000 576.000000,672.000000 
M233.901031,638.238342 
	C240.943069,638.178162 247.985123,638.117981 255.945099,638.249207 
	C293.444061,638.247131 330.943909,638.406982 368.441772,638.204285 
	C422.269226,637.913330 476.105072,637.845154 529.918762,636.760376 
	C572.383301,635.904236 614.825623,633.794617 657.267151,631.991333 
	C700.356873,630.160461 743.457214,628.418274 786.505188,625.840454 
	C805.955566,624.675720 825.030273,620.312012 843.146240,612.808167 
	C868.662170,602.239258 889.585266,586.315125 899.329590,559.441956 
	C903.716797,547.342712 907.274902,534.582520 908.711060,521.840698 
	C913.108765,482.825958 916.601990,443.700165 919.850586,404.568024 
	C922.178467,376.526550 923.944519,348.423950 925.245667,320.315460 
	C926.862915,285.378174 928.182068,250.413574 928.724182,215.446747 
	C928.939880,201.535172 927.172485,187.533371 925.522217,173.666153 
	C922.976135,152.271866 911.593933,134.728241 899.380920,117.794769 
	C878.504395,88.849495 850.624390,68.448685 818.719055,53.275345 
	C790.161133,39.693935 760.487915,29.664682 728.704224,27.203991 
	C701.200684,25.074671 673.781616,27.490183 646.350342,29.144033 
	C613.606018,31.118214 580.872009,33.930599 548.098083,34.575558 
	C509.630585,35.332561 471.121918,34.331730 432.637268,33.711437 
	C418.830048,33.488895 405.033813,32.255718 391.244934,31.304575 
	C371.811951,29.964100 352.410217,28.056419 332.960297,27.097670 
	C279.138397,24.444614 226.413101,31.934252 174.303680,44.901352 
	C146.742661,51.759735 122.761017,64.343163 104.614723,86.805153 
	C90.804207,103.900192 82.805092,123.826134 78.148315,144.860809 
	C71.291245,175.834229 65.238487,207.011322 59.819672,238.270935 
	C53.414120,275.222778 50.220562,312.548157 50.005791,350.081146 
	C49.816788,383.110962 52.492672,415.969116 56.784977,448.683319 
	C60.591824,477.697540 64.239830,506.758057 69.139587,535.597412 
	C76.231682,577.340576 100.534264,605.904663 139.197861,622.447998 
	C169.158905,635.267761 200.791931,638.396240 233.901031,638.238342 
z"/>
<path fill="#EB2C3B" opacity="1.000000" stroke="none" 
	d="
M232.973175,638.063354 
	C200.791931,638.396240 169.158905,635.267761 139.197861,622.447998 
	C100.534264,605.904663 76.231682,577.340576 69.139587,535.597412 
	C64.239830,506.758057 60.591824,477.697540 56.784977,448.683319 
	C52.492672,415.969116 49.816788,383.110962 50.005791,350.081146 
	C50.220562,312.548157 53.414120,275.222778 59.819672,238.270935 
	C65.238487,207.011322 71.291245,175.834229 78.148315,144.860809 
	C82.805092,123.826134 90.804207,103.900192 104.614723,86.805153 
	C122.761017,64.343163 146.742661,51.759735 174.303680,44.901352 
	C226.413101,31.934252 279.138397,24.444614 332.960297,27.097670 
	C352.410217,28.056419 371.811951,29.964100 391.244934,31.304575 
	C405.033813,32.255718 418.830048,33.488895 432.637268,33.711437 
	C471.121918,34.331730 509.630585,35.332561 548.098083,34.575558 
	C580.872009,33.930599 613.606018,31.118214 646.350342,29.144033 
	C673.781616,27.490183 701.200684,25.074671 728.704224,27.203991 
	C760.487915,29.664682 790.161133,39.693935 818.719055,53.275345 
	C850.624390,68.448685 878.504395,88.849495 899.380920,117.794769 
	C911.593933,134.728241 922.976135,152.271866 925.522217,173.666153 
	C927.172485,187.533371 928.939880,201.535172 928.724182,215.446747 
	C928.182068,250.413574 926.862915,285.378174 925.245667,320.315460 
	C923.944519,348.423950 922.178467,376.526550 919.850586,404.568024 
	C916.601990,443.700165 913.108765,482.825958 908.711060,521.840698 
	C907.274902,534.582520 903.716797,547.342712 899.329590,559.441956 
	C889.585266,586.315125 868.662170,602.239258 843.146240,612.808167 
	C825.030273,620.312012 805.955566,624.675720 786.505188,625.840454 
	C743.457214,628.418274 700.356873,630.160461 657.267151,631.991333 
	C614.825623,633.794617 572.383301,635.904236 529.918762,636.760376 
	C476.105072,637.845154 422.269226,637.913330 368.441772,638.204285 
	C330.943909,638.406982 293.444061,638.247131 255.188812,637.855591 
	C247.279404,637.662476 240.126282,637.862915 232.973175,638.063354 
M374.436707,259.049316 
	C376.295105,277.595459 378.218567,296.135345 379.996277,314.689209 
	C382.504425,340.866455 384.884918,367.055908 387.356598,393.236694 
	C389.859497,419.747772 393.261749,446.212128 394.584259,472.780853 
	C395.274109,486.639435 407.422577,492.216431 418.305359,485.170105 
	C431.425690,476.675049 445.071289,468.984833 458.111603,460.373962 
	C492.533630,437.644196 526.277222,413.782532 563.233032,395.217590 
	C592.624817,380.452423 622.418701,366.483063 652.117798,352.336212 
	C667.194092,345.154816 669.588135,329.913849 656.442932,319.846405 
	C644.306885,310.551910 632.201294,300.879669 618.901794,293.501923 
	C567.304077,264.878693 515.286438,237.009689 463.316956,209.061050 
	C443.197357,198.240952 421.778534,190.601532 399.684418,184.892776 
	C397.904663,184.432922 395.654510,184.695160 393.911530,185.368698 
	C382.084930,189.938751 374.223877,197.890564 374.061584,211.245743 
	C373.871674,226.869522 374.205109,242.499664 374.436707,259.049316 
z"/>
<path fill="#FF3243" opacity="1.000000" stroke="none" 
	d="
M233.437103,638.150879 
	C240.126282,637.862915 247.279404,637.662476 254.729828,637.759949 
	C247.985123,638.117981 240.943069,638.178162 233.437103,638.150879 
z"/>
<path fill="#010101" opacity="1.000000" stroke="none" 
	d="
M374.374084,258.588196 
	C374.205109,242.499664 373.871674,226.869522 374.061584,211.245743 
	C374.223877,197.890564 382.084930,189.938751 393.911530,185.368698 
	C395.654510,184.695160 397.904663,184.432922 399.684418,184.892776 
	C421.778534,190.601532 443.197357,198.240952 463.316956,209.061050 
	C515.286438,237.009689 567.304077,264.878693 618.901794,293.501923 
	C632.201294,300.879669 644.306885,310.551910 656.442932,319.846405 
	C669.588135,329.913849 667.194092,345.154816 652.117798,352.336212 
	C622.418701,366.483063 592.624817,380.452423 563.233032,395.217590 
	C526.277222,413.782532 492.533630,437.644196 458.111603,460.373962 
	C445.071289,468.984833 431.425690,476.675049 418.305359,485.170105 
	C407.422577,492.216431 395.274109,486.639435 394.584259,472.780853 
	C393.261749,446.212128 389.859497,419.747772 387.356598,393.236694 
	C384.884918,367.055908 382.504425,340.866455 379.996277,314.689209 
	C378.218567,296.135345 376.295105,277.595459 374.374084,258.588196 
M417.768982,233.400742 
	C416.871124,232.865738 415.973267,232.330734 414.918091,231.325867 
	C414.678589,231.054123 414.379486,230.943192 413.702515,230.453735 
	C412.822449,229.912338 411.942383,229.370941 410.905151,228.355820 
	C410.674286,228.071136 410.376953,227.951080 409.663513,227.403549 
	C407.337219,225.823639 405.010895,224.243729 402.108063,222.272278 
	C402.108063,227.852875 402.108063,232.425156 401.927582,237.840805 
	C401.949280,239.559662 401.970978,241.278519 401.768799,243.777283 
	C401.512726,266.575958 401.172516,289.374176 401.053284,312.173553 
	C401.018738,318.781494 401.617645,325.392761 401.732239,332.862030 
	C401.861420,334.908905 401.990631,336.955750 401.995056,339.907410 
	C402.308289,344.272339 402.621521,348.637238 402.768860,353.794464 
	C402.885773,354.863831 403.002686,355.933197 402.997437,357.862305 
	C403.301910,360.909210 403.606384,363.956146 403.755066,367.796997 
	C403.881561,368.865601 404.008026,369.934235 404.004822,371.812134 
	C404.318634,374.208679 404.632446,376.605225 404.793610,379.670959 
	C404.889984,380.114655 404.986389,380.558319 404.965057,381.656860 
	C405.270569,383.772675 405.576111,385.888458 405.732941,388.753204 
	C405.860931,389.502991 405.988922,390.252777 405.999420,391.757538 
	C406.310150,393.505768 406.620880,395.254028 406.790558,397.674500 
	C406.895264,398.117126 406.999969,398.559753 406.997467,399.759491 
	C407.320770,401.506683 407.644104,403.253876 407.848206,405.708740 
	C407.995605,406.885834 408.143005,408.062958 408.265564,409.962067 
	C408.501465,410.641663 408.737396,411.321259 408.871887,412.753998 
	C408.977325,413.503754 409.082764,414.253510 409.087433,415.631256 
	C409.365051,416.421844 409.642639,417.212402 409.813110,418.709656 
	C409.997650,419.872986 410.182220,421.036316 410.401245,423.013336 
	C410.669342,424.340912 410.937439,425.668457 411.127899,427.700073 
	C411.543396,429.530365 411.958862,431.360657 412.381989,433.842377 
	C412.575470,434.228668 412.768921,434.614960 412.870697,435.674927 
	C412.966156,436.116699 413.061615,436.558441 413.086487,437.798492 
	C414.080231,442.106689 415.073975,446.414856 416.163940,451.140198 
	C420.436646,447.723114 424.403046,444.550995 428.008118,440.997559 
	C428.129944,441.123718 428.251740,441.249878 429.015350,441.145172 
	C432.484070,438.600769 435.952759,436.056366 439.429108,433.438232 
	C439.429108,433.438232 439.503174,433.438141 440.117340,433.160156 
	C445.699432,429.363220 451.281494,425.566254 456.993927,421.698639 
	C456.993927,421.698639 457.121368,421.622894 457.742523,421.367096 
	C458.457886,420.840515 459.173218,420.313965 460.023712,419.720215 
	C460.023712,419.720215 460.158051,419.651489 460.758118,419.418243 
	C461.646088,418.832581 462.534058,418.246918 463.553375,417.576294 
	C463.553375,417.576294 463.660034,417.461853 464.247864,417.165680 
	C466.640289,415.648987 469.032684,414.132324 471.510529,412.534760 
	C471.510529,412.534760 471.606720,412.467102 472.180969,412.194458 
	C473.409821,411.399628 474.638672,410.604767 476.038666,409.759521 
	C476.038666,409.759521 476.192688,409.669434 476.838440,409.394836 
	C478.181976,408.524414 479.525543,407.653992 481.020050,406.724792 
	C481.020050,406.724792 481.160980,406.644897 481.838226,406.351776 
	C486.514557,403.500275 491.190887,400.648804 496.031097,397.745789 
	C496.031097,397.745789 496.180664,397.661163 496.829132,397.389832 
	C498.178192,396.533966 499.527222,395.678070 501.054962,394.777405 
	C501.054962,394.777405 501.215729,394.687500 501.872864,394.414734 
	C503.612427,393.295959 505.351990,392.177185 507.029297,391.002838 
	C507.029297,391.002838 507.049164,391.083862 507.750977,390.970215 
	C512.792725,387.930054 517.834473,384.889893 523.376587,381.837982 
	C523.718994,381.708008 523.926575,381.463623 524.539001,381.034302 
	C525.142395,380.645111 525.745728,380.255920 526.773804,379.830017 
	C526.773804,379.830017 527.013306,379.477325 527.599426,379.231079 
	C530.434387,377.510193 533.269409,375.789307 536.036438,374.009216 
	C536.036438,374.009216 536.057983,374.096741 536.718933,374.000092 
	C538.179993,373.075378 539.641052,372.150665 541.686035,371.120605 
	C542.136780,370.782104 542.587524,370.443604 543.724976,369.996216 
	C545.440002,368.951141 547.155090,367.906067 549.490906,366.823151 
	C549.993347,366.460815 550.495850,366.098480 551.631775,365.574890 
	C553.448975,364.445374 555.266113,363.315887 557.669006,362.093536 
	C558.122253,361.755859 558.575562,361.418182 559.721924,360.984222 
	C561.841431,359.716339 563.960938,358.448456 566.668579,357.095703 
	C567.123352,356.760803 567.578125,356.425903 568.747925,355.988708 
	C571.784546,354.268036 574.821167,352.547363 578.065186,350.804840 
	C578.065186,350.804840 578.245667,350.700378 578.932190,350.411957 
	C582.643555,348.324829 586.354858,346.237701 590.656006,344.078186 
	C591.115417,343.750336 591.574829,343.422485 592.754761,342.999573 
	C596.400574,341.090790 600.046387,339.182007 604.518188,336.840729 
	C601.281250,335.535034 599.171692,334.684082 596.665710,333.258911 
	C593.728027,331.885406 590.790344,330.511932 587.321350,328.729340 
	C582.547119,326.234528 577.772888,323.739716 572.635132,320.955322 
	C572.635132,320.955322 572.170715,320.936340 571.794373,320.362915 
	C569.195740,318.996155 566.597046,317.629425 563.449524,315.889526 
	C562.662354,315.520386 561.875183,315.151245 560.727295,314.211090 
	C556.163635,311.774017 551.599915,309.336914 546.750671,306.377594 
	C546.197144,306.177521 545.643555,305.977448 544.727539,305.208405 
	C540.484497,302.891174 536.241455,300.573914 531.634338,297.961517 
	C531.634338,297.961517 531.166260,297.937988 530.793030,297.362579 
	C528.194824,295.993652 525.596680,294.624695 522.450317,292.881561 
	C521.663452,292.513763 520.876526,292.145966 519.733704,291.213196 
	C517.155396,289.889191 514.577026,288.565186 511.445038,286.877075 
	C510.653900,286.524384 509.862793,286.171722 508.709473,285.245758 
	C504.139160,282.915710 499.568848,280.585663 494.430450,277.886536 
	C493.026398,277.230286 491.622375,276.574066 489.830109,275.335388 
	C484.896149,272.863831 479.962219,270.392273 474.670380,267.366180 
	C473.472504,266.846527 472.274658,266.326904 470.780151,265.278046 
	C469.535858,264.685791 468.291595,264.093536 466.782410,263.156311 
	C466.782410,263.156311 466.348053,263.133636 465.877716,262.751282 
	C464.595825,262.137756 463.313934,261.524200 461.736176,260.394348 
	C461.179718,260.206360 460.623291,260.018341 459.717468,259.257843 
	C457.488770,258.142700 455.260101,257.027557 452.740295,255.393845 
	C452.187103,255.195450 451.633881,254.997055 450.731689,254.223526 
	C447.376099,252.322830 444.020477,250.422134 440.551147,248.407562 
	C440.551147,248.407562 440.410767,248.328766 439.904175,247.935089 
	C437.476990,246.467728 435.049835,245.000381 432.522522,243.445541 
	C432.522522,243.445541 432.418488,243.362762 431.926880,242.950195 
	C431.007690,242.412048 430.088501,241.873917 429.021027,241.244583 
	C429.021027,241.244583 428.856873,241.186630 428.372345,240.749557 
	C426.330566,239.458939 424.288818,238.168335 422.021637,236.374908 
	C421.689392,236.247162 421.357178,236.119415 420.701141,235.459106 
	C419.813507,234.949814 418.925903,234.440521 418.019104,234.001892 
	C418.019104,234.001892 418.075104,233.954697 417.768982,233.400742 
z"/>
<path fill="#F1F1F2" opacity="1.000000" stroke="none" 
	d="
M405.082794,381.002014 
	C404.986389,380.558319 404.889984,380.114655 405.235229,379.261475 
	C408.125793,375.653351 407.083252,373.140808 404.134521,371.002838 
	C404.008026,369.934235 403.881561,368.865601 404.207184,367.324036 
	C407.202087,363.090454 405.600281,359.977814 403.119598,357.002563 
	C403.002686,355.933197 402.885773,354.863831 403.235626,353.312012 
	C405.622986,349.050018 404.806885,341.919495 402.119843,339.002625 
	C401.990631,336.955750 401.861420,334.908905 402.224609,332.338989 
	C403.143433,330.164429 403.962280,328.506165 403.933990,326.862427 
	C403.714691,314.127747 403.103607,301.396484 403.071411,288.662994 
	C403.045502,278.419220 403.918152,268.172791 403.876831,257.929626 
	C403.856720,252.949753 402.657898,247.974640 401.992676,242.997375 
	C401.970978,241.278519 401.949280,239.559662 402.390930,237.316101 
	C403.236298,235.610580 404.046875,234.383835 403.926086,233.256912 
	C403.405334,228.398392 404.989532,226.290909 410.013123,227.995651 
	C410.376953,227.951080 410.674286,228.071136 411.017944,228.948761 
	C412.094055,230.025497 413.057373,230.509293 414.020721,230.993088 
	C414.379486,230.943192 414.678589,231.054123 415.028320,231.922745 
	C416.117401,232.997971 417.096252,233.476334 418.075104,233.954681 
	C418.075104,233.954697 418.019104,234.001892 418.074127,234.314957 
	C419.094421,235.082565 420.059662,235.537125 421.024933,235.991669 
	C421.357178,236.119415 421.689392,236.247162 421.873901,236.811890 
	C422.865112,240.803223 425.268036,242.068680 428.856873,241.186630 
	C428.856873,241.186630 429.021027,241.244583 429.091858,241.714996 
	C430.247986,242.577866 431.333221,242.970322 432.418488,243.362762 
	C432.418488,243.362762 432.522522,243.445541 432.440186,243.851303 
	C433.787720,248.095306 436.641418,249.117538 440.410767,248.328766 
	C440.410767,248.328766 440.551147,248.407562 440.474915,248.806702 
	C443.018768,252.866592 445.965179,255.904037 451.080688,254.798676 
	C451.633881,254.997055 452.187103,255.195450 452.915680,256.009705 
	C454.682617,259.290863 456.179382,262.162476 460.066833,259.830353 
	C460.623291,260.018341 461.179718,260.206360 461.926270,261.038452 
	C463.526917,262.166290 464.937469,262.649963 466.348053,263.133636 
	C466.348053,263.133636 466.782410,263.156311 466.698792,263.634308 
	C467.223816,266.989899 468.664551,267.677185 471.076782,265.807251 
	C472.274658,266.326904 473.472504,266.846527 474.881165,267.996948 
	C479.036957,273.334229 483.891418,276.153625 490.218323,275.917816 
	C491.622375,276.574066 493.026398,277.230286 494.727905,278.420227 
	C498.859497,281.534943 502.654694,284.178528 506.577759,286.616364 
	C507.058319,286.915009 508.223663,286.111664 509.071686,285.819031 
	C509.862793,286.171722 510.653900,286.524384 511.735168,287.409973 
	C513.965454,290.794006 515.967712,293.514526 520.089661,291.778168 
	C520.876526,292.145966 521.663452,292.513763 522.739380,293.427032 
	C524.409973,298.025879 527.716614,298.128693 531.166260,297.937988 
	C531.166260,297.937988 531.634338,297.961517 531.827759,298.470825 
	C533.302612,301.499146 541.926819,306.740936 544.443604,306.478912 
	C544.680847,306.454224 544.875549,306.020966 545.090027,305.777405 
	C545.643555,305.977448 546.197144,306.177521 546.922668,307.000610 
	C551.245483,310.360168 555.383057,313.117676 559.586243,315.771179 
	C559.795349,315.903198 560.574341,315.132446 561.088013,314.782104 
	C561.875183,315.151245 562.662354,315.520386 563.739014,316.434052 
	C565.416626,321.025696 568.720886,321.130768 572.170715,320.936340 
	C572.170715,320.936340 572.635132,320.955322 572.830078,321.449951 
	C575.993347,326.339874 583.585266,330.023224 587.852661,329.138428 
	C590.790344,330.511932 593.728027,331.885406 596.847046,333.939880 
	C596.269104,336.261475 595.618042,337.964691 594.716858,339.523193 
	C593.976807,340.802856 592.939636,341.910645 592.034241,343.094604 
	C591.574829,343.422485 591.115417,343.750336 590.147339,343.837769 
	C584.866516,343.638306 579.513672,346.975586 578.245667,350.700378 
	C578.245667,350.700378 578.065186,350.804840 577.570801,350.603485 
	C572.759705,350.228424 569.721802,352.087555 568.032898,356.091034 
	C567.578125,356.425903 567.123352,356.760803 566.164917,356.858765 
	C561.969421,355.904938 559.853577,357.532440 559.028809,361.080536 
	C558.575562,361.418182 558.122253,361.755859 557.166748,361.860046 
	C553.305664,360.969574 551.200317,362.040771 550.998291,365.736145 
	C550.495850,366.098480 549.993347,366.460815 548.798462,366.622925 
	C544.972229,365.662201 543.513306,367.206635 543.038269,370.105072 
	C542.587524,370.443604 542.136780,370.782104 541.192749,370.891174 
	C537.416931,369.461853 536.591797,371.582489 536.057983,374.096741 
	C536.057983,374.096741 536.036438,374.009216 535.654541,374.020386 
	C531.162292,373.788391 528.492554,375.730072 527.013306,379.477325 
	C527.013306,379.477325 526.773804,379.830017 526.257263,379.670410 
	C525.160217,380.042114 524.579712,380.573456 523.999207,381.104797 
	C523.926575,381.463623 523.718994,381.708008 522.732910,381.626831 
	C517.676392,383.528351 513.203003,385.528534 508.898529,387.842896 
	C507.969727,388.342285 507.649628,389.973816 507.049133,391.083862 
	C507.049164,391.083862 507.029297,391.002838 506.649689,391.015869 
	C503.827820,391.201965 501.123566,391.013123 501.215729,394.687500 
	C501.215729,394.687500 501.054962,394.777405 500.550781,394.585632 
	C497.274445,393.727692 496.046631,394.888733 496.180664,397.661163 
	C496.180664,397.661163 496.031097,397.745789 495.551331,397.567261 
	C491.701660,399.048859 488.214386,400.514984 485.012360,402.452576 
	C483.453674,403.395752 482.427948,405.219635 481.160950,406.644897 
	C481.160980,406.644897 481.020050,406.724792 480.526184,406.549927 
	C477.270782,405.746307 476.032166,406.892517 476.192688,409.669434 
	C476.192688,409.669434 476.038666,409.759521 475.563782,409.588898 
	C473.928162,410.434540 472.767426,411.450806 471.606689,412.467102 
	C471.606720,412.467102 471.510529,412.534760 471.086609,412.420013 
	C467.569672,412.993713 463.489471,412.341553 463.660034,417.461853 
	C463.660034,417.461853 463.553375,417.576294 463.091461,417.455566 
	C461.805725,418.107056 460.981873,418.879272 460.158051,419.651489 
	C460.158051,419.651489 460.023712,419.720215 459.548370,419.580231 
	C458.422455,420.167786 457.771912,420.895325 457.121368,421.622894 
	C457.121368,421.622894 456.993927,421.698639 456.551453,421.550018 
	C450.554962,424.769867 444.988007,428.117737 439.484924,431.567413 
	C439.208679,431.740601 439.484467,432.794373 439.503174,433.438141 
	C439.503174,433.438141 439.429108,433.438232 439.047211,433.346069 
	C434.015625,434.416565 430.041656,436.435394 428.373505,441.376038 
	C428.251740,441.249878 428.129944,441.123718 427.805267,441.093445 
	C424.167145,442.825439 420.731903,444.461548 417.285828,446.102814 
	C415.884033,442.780823 418.382843,438.133942 413.157074,437.000214 
	C413.061615,436.558441 412.966156,436.116699 413.231964,435.282898 
	C413.866333,434.563446 414.139435,434.236023 414.412537,433.908569 
	C413.733154,433.669342 413.053741,433.430115 412.374329,433.190918 
	C411.958862,431.360657 411.543396,429.530365 411.462769,427.288879 
	C412.260010,425.031006 414.673737,422.587494 410.366760,422.199646 
	C410.182220,421.036316 409.997650,419.872986 410.203430,418.303467 
	C410.969879,417.281616 411.345978,416.665985 411.722046,416.050385 
	C410.877472,415.701324 410.032867,415.352295 409.188232,415.003265 
	C409.082764,414.253510 408.977325,413.503754 409.276367,412.308228 
	C410.008911,411.272461 410.336975,410.682434 410.665009,410.092377 
	C409.873474,409.808289 409.081940,409.524170 408.290405,409.240051 
	C408.143005,408.062958 407.995605,406.885834 408.251038,405.294067 
	C410.716858,402.240417 409.703247,400.412506 407.104675,399.002380 
	C406.999969,398.559753 406.895264,398.117126 407.206665,397.279907 
	C409.744080,394.252899 408.692200,392.432770 406.116913,391.002563 
	C405.988922,390.252777 405.860931,389.502991 406.161072,388.319824 
	C408.850677,384.986908 407.549225,382.867004 405.082794,381.002014 
z"/>
<path fill="#F5F5F6" opacity="1.000000" stroke="none" 
	d="
M401.880737,243.387329 
	C402.657898,247.974640 403.856720,252.949753 403.876831,257.929626 
	C403.918152,268.172791 403.045502,278.419220 403.071411,288.662994 
	C403.103607,301.396484 403.714691,314.127747 403.933990,326.862427 
	C403.962280,328.506165 403.143433,330.164429 402.321594,331.909241 
	C401.617645,325.392761 401.018738,318.781494 401.053284,312.173553 
	C401.172516,289.374176 401.512726,266.575958 401.880737,243.387329 
z"/>
<path fill="#F2F2F2" opacity="1.000000" stroke="none" 
	d="
M413.121765,437.399353 
	C418.382843,438.133942 415.884033,442.780823 417.285828,446.102814 
	C420.731903,444.461548 424.167145,442.825439 427.985962,441.284088 
	C424.403046,444.550995 420.436646,447.723114 416.163940,451.140198 
	C415.073975,446.414856 414.080231,442.106689 413.121765,437.399353 
z"/>
<path fill="#F2F2F2" opacity="1.000000" stroke="none" 
	d="
M439.810272,433.299133 
	C439.484467,432.794373 439.208679,431.740601 439.484924,431.567413 
	C444.988007,428.117737 450.554962,424.769867 456.486267,421.585358 
	C451.281494,425.566254 445.699432,429.363220 439.810272,433.299133 
z"/>
<path fill="#F2F2F2" opacity="1.000000" stroke="none" 
	d="
M592.394531,343.047089 
	C592.939636,341.910645 593.976807,340.802856 594.716858,339.523193 
	C595.618042,337.964691 596.269104,336.261475 597.045227,334.226990 
	C599.171692,334.684082 601.281250,335.535034 604.518188,336.840729 
	C600.046387,339.182007 596.400574,341.090790 592.394531,343.047089 
z"/>
<path fill="#F5F5F6" opacity="1.000000" stroke="none" 
	d="
M409.838318,227.699600 
	C404.989532,226.290909 403.405334,228.398392 403.926086,233.256912 
	C404.046875,234.383835 403.236298,235.610580 402.481171,236.894409 
	C402.108063,232.425156 402.108063,227.852875 402.108063,222.272278 
	C405.010895,224.243729 407.337219,225.823639 409.838318,227.699600 
z"/>
<path fill="#F2F2F2" opacity="1.000000" stroke="none" 
	d="
M507.400055,391.027039 
	C507.649628,389.973816 507.969727,388.342285 508.898529,387.842896 
	C513.203003,385.528534 517.676392,383.528351 522.482788,381.632690 
	C517.834473,384.889893 512.792725,387.930054 507.400055,391.027039 
z"/>
<path fill="#F2F2F2" opacity="1.000000" stroke="none" 
	d="
M587.587036,328.933899 
	C583.585266,330.023224 575.993347,326.339874 573.011841,321.594727 
	C577.772888,323.739716 582.547119,326.234528 587.587036,328.933899 
z"/>
<path fill="#F2F2F2" opacity="1.000000" stroke="none" 
	d="
M508.890564,285.532410 
	C508.223663,286.111664 507.058319,286.915009 506.577759,286.616364 
	C502.654694,284.178528 498.859497,281.534943 495.011963,278.604767 
	C499.568848,280.585663 504.139160,282.915710 508.890564,285.532410 
z"/>
<path fill="#F2F2F2" opacity="1.000000" stroke="none" 
	d="
M490.024231,275.626587 
	C483.891418,276.153625 479.036957,273.334229 475.060120,268.274231 
	C479.962219,270.392273 484.896149,272.863831 490.024231,275.626587 
z"/>
<path fill="#F2F2F2" opacity="1.000000" stroke="none" 
	d="
M560.907654,314.496582 
	C560.574341,315.132446 559.795349,315.903198 559.586243,315.771179 
	C555.383057,313.117676 551.245483,310.360168 547.065430,307.261749 
	C551.599915,309.336914 556.163635,311.774017 560.907654,314.496582 
z"/>
<path fill="#F2F2F2" opacity="1.000000" stroke="none" 
	d="
M481.499573,406.498322 
	C482.427948,405.219635 483.453674,403.395752 485.012360,402.452576 
	C488.214386,400.514984 491.701660,399.048859 495.469391,397.593018 
	C491.190887,400.648804 486.514557,403.500275 481.499573,406.498322 
z"/>
<path fill="#F2F2F2" opacity="1.000000" stroke="none" 
	d="
M544.908813,305.492920 
	C544.875549,306.020966 544.680847,306.454224 544.443604,306.478912 
	C541.926819,306.740936 533.302612,301.499146 532.009827,298.618408 
	C536.241455,300.573914 540.484497,302.891174 544.908813,305.492920 
z"/>
<path fill="#F5F5F6" opacity="1.000000" stroke="none" 
	d="
M402.057434,339.455017 
	C404.806885,341.919495 405.622986,349.050018 403.318573,352.915894 
	C402.621521,348.637238 402.308289,344.272339 402.057434,339.455017 
z"/>
<path fill="#F2F2F2" opacity="1.000000" stroke="none" 
	d="
M578.588928,350.556152 
	C579.513672,346.975586 584.866516,343.638306 589.852417,343.873962 
	C586.354858,346.237701 582.643555,348.324829 578.588928,350.556152 
z"/>
<path fill="#F2F2F2" opacity="1.000000" stroke="none" 
	d="
M450.906189,254.511108 
	C445.965179,255.904037 443.018768,252.866592 440.531799,248.863632 
	C444.020477,250.422134 447.376099,252.322830 450.906189,254.511108 
z"/>
<path fill="#F2F2F2" opacity="1.000000" stroke="none" 
	d="
M428.694427,441.260620 
	C430.041656,436.435394 434.015625,434.416565 439.043396,433.382935 
	C435.952759,436.056366 432.484070,438.600769 428.694427,441.260620 
z"/>
<path fill="#F2F2F2" opacity="1.000000" stroke="none" 
	d="
M568.390381,356.039856 
	C569.721802,352.087555 572.759705,350.228424 577.467102,350.614410 
	C574.821167,352.547363 571.784546,354.268036 568.390381,356.039856 
z"/>
<path fill="#F5F5F6" opacity="1.000000" stroke="none" 
	d="
M403.058533,357.432434 
	C405.600281,359.977814 407.202087,363.090454 404.285095,366.927063 
	C403.606384,363.956146 403.301910,360.909210 403.058533,357.432434 
z"/>
<path fill="#F2F2F2" opacity="1.000000" stroke="none" 
	d="
M519.911682,291.495667 
	C515.967712,293.514526 513.965454,290.794006 512.011963,287.592041 
	C514.577026,288.565186 517.155396,289.889191 519.911682,291.495667 
z"/>
<path fill="#F2F2F2" opacity="1.000000" stroke="none" 
	d="
M527.306396,379.354187 
	C528.492554,375.730072 531.162292,373.788391 535.688538,374.049988 
	C533.269409,375.789307 530.434387,377.510193 527.306396,379.354187 
z"/>
<path fill="#F2F2F2" opacity="1.000000" stroke="none" 
	d="
M463.953949,417.313782 
	C463.489471,412.341553 467.569672,412.993713 471.043884,412.460449 
	C469.032684,414.132324 466.640289,415.648987 463.953949,417.313782 
z"/>
<path fill="#F2F2F2" opacity="1.000000" stroke="none" 
	d="
M440.157471,248.131927 
	C436.641418,249.117538 433.787720,248.095306 432.490265,243.895050 
	C435.049835,245.000381 437.476990,246.467728 440.157471,248.131927 
z"/>
<path fill="#F2F2F2" opacity="1.000000" stroke="none" 
	d="
M571.982544,320.649628 
	C568.720886,321.130768 565.416626,321.025696 564.013489,316.620605 
	C566.597046,317.629425 569.195740,318.996155 571.982544,320.649628 
z"/>
<path fill="#F2F2F2" opacity="1.000000" stroke="none" 
	d="
M459.892151,259.544098 
	C456.179382,262.162476 454.682617,259.290863 453.061218,256.268982 
	C455.260101,257.027557 457.488770,258.142700 459.892151,259.544098 
z"/>
<path fill="#F2F2F2" opacity="1.000000" stroke="none" 
	d="
M530.979614,297.650269 
	C527.716614,298.128693 524.409973,298.025879 523.013428,293.614136 
	C525.596680,294.624695 528.194824,295.993652 530.979614,297.650269 
z"/>
<path fill="#F2F2F2" opacity="1.000000" stroke="none" 
	d="
M559.375366,361.032379 
	C559.853577,357.532440 561.969421,355.904938 565.870850,356.901184 
	C563.960938,358.448456 561.841431,359.716339 559.375366,361.032379 
z"/>
<path fill="#F5F5F6" opacity="1.000000" stroke="none" 
	d="
M404.069672,371.407471 
	C407.083252,373.140808 408.125793,375.653351 405.311523,378.926880 
	C404.632446,376.605225 404.318634,374.208679 404.069672,371.407471 
z"/>
<path fill="#F2F2F2" opacity="1.000000" stroke="none" 
	d="
M551.315063,365.655518 
	C551.200317,362.040771 553.305664,360.969574 556.873840,361.906464 
	C555.266113,363.315887 553.448975,364.445374 551.315063,365.655518 
z"/>
<path fill="#F2F2F2" opacity="1.000000" stroke="none" 
	d="
M428.614624,240.968094 
	C425.268036,242.068680 422.865112,240.803223 421.986603,237.063293 
	C424.288818,238.168335 426.330566,239.458939 428.614624,240.968094 
z"/>
<path fill="#F5F5F6" opacity="1.000000" stroke="none" 
	d="
M405.023926,381.329437 
	C407.549225,382.867004 408.850677,384.986908 406.235413,387.945343 
	C405.576111,385.888458 405.270569,383.772675 405.023926,381.329437 
z"/>
<path fill="#F2F2F2" opacity="1.000000" stroke="none" 
	d="
M543.381592,370.050659 
	C543.513306,367.206635 544.972229,365.662201 548.488037,366.641846 
	C547.155090,367.906067 545.440002,368.951141 543.381592,370.050659 
z"/>
<path fill="#F2F2F2" opacity="1.000000" stroke="none" 
	d="
M536.388428,374.048401 
	C536.591797,371.582489 537.416931,369.461853 540.900757,370.943848 
	C539.641052,372.150665 538.179993,373.075378 536.388428,374.048401 
z"/>
<path fill="#F2F2F2" opacity="1.000000" stroke="none" 
	d="
M470.928467,265.542664 
	C468.664551,267.677185 467.223816,266.989899 466.831238,263.806763 
	C468.291595,264.093536 469.535858,264.685791 470.928467,265.542664 
z"/>
<path fill="#F2F2F2" opacity="1.000000" stroke="none" 
	d="
M501.544312,394.551117 
	C501.123566,391.013123 503.827820,391.201965 506.680786,391.043640 
	C505.351990,392.177185 503.612427,393.295959 501.544312,394.551117 
z"/>
<path fill="#F5F5F6" opacity="1.000000" stroke="none" 
	d="
M407.051086,399.380920 
	C409.703247,400.412506 410.716858,402.240417 408.310669,404.940216 
	C407.644104,403.253876 407.320770,401.506683 407.051086,399.380920 
z"/>
<path fill="#F5F5F6" opacity="1.000000" stroke="none" 
	d="
M406.058167,391.380066 
	C408.692200,392.432770 409.744080,394.252899 407.277191,396.943787 
	C406.620880,395.254028 406.310150,393.505768 406.058167,391.380066 
z"/>
<path fill="#F2F2F2" opacity="1.000000" stroke="none" 
	d="
M496.504883,397.525513 
	C496.046631,394.888733 497.274445,393.727692 500.461426,394.608032 
	C499.527222,395.678070 498.178192,396.533966 496.504883,397.525513 
z"/>
<path fill="#F2F2F2" opacity="1.000000" stroke="none" 
	d="
M476.515564,409.532135 
	C476.032166,406.892517 477.270782,405.746307 480.450714,406.579346 
	C479.525543,407.653992 478.181976,408.524414 476.515564,409.532135 
z"/>
<path fill="#F2F2F2" opacity="1.000000" stroke="none" 
	d="
M466.112885,262.942444 
	C464.937469,262.649963 463.526917,262.166290 462.074188,261.296631 
	C463.313934,261.524200 464.595825,262.137756 466.112885,262.942444 
z"/>
<path fill="#F5F5F6" opacity="1.000000" stroke="none" 
	d="
M410.384003,422.606506 
	C414.673737,422.587494 412.260010,425.031006 411.501587,426.936829 
	C410.937439,425.668457 410.669342,424.340912 410.384003,422.606506 
z"/>
<path fill="#F2F2F2" opacity="1.000000" stroke="none" 
	d="
M471.893829,412.330750 
	C472.767426,411.450806 473.928162,410.434540 475.478210,409.614105 
	C474.638672,410.604767 473.409821,411.399628 471.893829,412.330750 
z"/>
<path fill="#F5F5F6" opacity="1.000000" stroke="none" 
	d="
M409.137817,415.317261 
	C410.032867,415.352295 410.877472,415.701324 411.722046,416.050385 
	C411.345978,416.665985 410.969879,417.281616 410.257019,417.950134 
	C409.642639,417.212402 409.365051,416.421844 409.137817,415.317261 
z"/>
<path fill="#F2F2F2" opacity="1.000000" stroke="none" 
	d="
M460.458069,419.534851 
	C460.981873,418.879272 461.805725,418.107056 463.025818,417.498047 
	C462.534058,418.246918 461.646088,418.832581 460.458069,419.534851 
z"/>
<path fill="#F5F5F6" opacity="1.000000" stroke="none" 
	d="
M408.277985,409.601074 
	C409.081940,409.524170 409.873474,409.808289 410.665009,410.092377 
	C410.336975,410.682434 410.008911,411.272461 409.327087,411.931671 
	C408.737396,411.321259 408.501465,410.641663 408.277985,409.601074 
z"/>
<path fill="#F2F2F2" opacity="1.000000" stroke="none" 
	d="
M432.172668,243.156479 
	C431.333221,242.970322 430.247986,242.577866 429.166016,241.760605 
	C430.088501,241.873917 431.007690,242.412048 432.172668,243.156479 
z"/>
<path fill="#F5F5F6" opacity="1.000000" stroke="none" 
	d="
M420.863037,235.725388 
	C420.059662,235.537125 419.094421,235.082565 418.083710,234.279633 
	C418.925903,234.440521 419.813507,234.949814 420.863037,235.725388 
z"/>
<path fill="#F5F5F6" opacity="1.000000" stroke="none" 
	d="
M417.922058,233.677704 
	C417.096252,233.476334 416.117401,232.997971 415.106995,232.157684 
	C415.973267,232.330734 416.871124,232.865738 417.922058,233.677704 
z"/>
<path fill="#F5F5F6" opacity="1.000000" stroke="none" 
	d="
M413.861633,230.723419 
	C413.057373,230.509293 412.094055,230.025497 411.096497,229.185623 
	C411.942383,229.370941 412.822449,229.912338 413.861633,230.723419 
z"/>
<path fill="#F2F2F2" opacity="1.000000" stroke="none" 
	d="
M524.269104,381.069550 
	C524.579712,380.573456 525.160217,380.042114 526.044922,379.688751 
	C525.745728,380.255920 525.142395,380.645111 524.269104,381.069550 
z"/>
<path fill="#F2F2F2" opacity="1.000000" stroke="none" 
	d="
M457.431946,421.494995 
	C457.771912,420.895325 458.422455,420.167786 459.480804,419.613831 
	C459.173218,420.313965 458.457886,420.840515 457.431946,421.494995 
z"/>
<path fill="#F5F5F6" opacity="1.000000" stroke="none" 
	d="
M412.378174,433.516663 
	C413.053741,433.430115 413.733154,433.669342 414.412537,433.908569 
	C414.139435,434.236023 413.866333,434.563446 413.277802,434.946045 
	C412.768921,434.614960 412.575470,434.228668 412.378174,433.516663 
z"/>
</svg>