<svg version="1.1" id="Layer_1" xmlns="http://www.w3.org/2000/svg" xmlns:xlink="http://www.w3.org/1999/xlink" x="0px" y="0px"
	 width="100%" viewBox="0 0 269 188" enable-background="new 0 0 269 188" xml:space="preserve">
<path fill="#FEED00" opacity="1.000000" stroke="none" 
	d="
M270.000000,57.000000 
	C270.000000,81.020897 270.000000,105.041786 269.616272,129.317505 
	C268.471863,135.147339 267.495026,140.702759 266.987854,146.300720 
	C264.798340,170.467361 254.290237,181.987442 230.385742,185.262314 
	C220.851654,186.568451 211.161530,186.718170 201.552902,187.519821 
	C200.335907,187.621368 199.182739,188.487900 198.000000,189.000000 
	C156.645767,189.000000 115.291542,189.000000 73.681702,188.612701 
	C70.481201,187.839752 67.545509,187.350525 64.589676,187.088058 
	C55.980827,186.323624 47.341393,185.852753 38.754787,184.899094 
	C19.940989,182.809555 8.156138,171.992477 5.201460,154.193649 
	C4.223014,148.299530 3.771937,142.319168 2.876711,136.408997 
	C2.645060,134.879654 1.646360,133.466522 0.999999,132.000000 
	C1.000000,107.645775 1.000000,83.291542 1.380719,58.684055 
	C3.196633,49.595242 4.109986,40.634911 6.185952,31.952570 
	C9.530584,17.964273 18.401115,8.633574 32.740395,6.122401 
	C43.844688,4.177756 55.207176,3.721046 66.443146,2.495311 
	C67.668556,2.361630 68.816254,1.515614 70.000000,1.000000 
	C113.020897,1.000000 156.041794,1.000000 199.311157,1.385755 
	C210.461594,2.862571 221.364212,3.947065 232.265350,5.046177 
	C250.241440,6.858623 261.592621,16.740175 265.428192,34.403107 
	C266.729431,40.395439 267.097107,46.585796 268.087372,52.653679 
	C268.334229,54.166210 269.341980,55.554565 270.000000,57.000000 
M177.561249,94.651672 
	C154.942261,81.552910 132.323257,68.454140 109.116486,55.014988 
	C109.116486,81.960175 109.116486,107.970963 109.116486,134.920181 
	C132.283524,121.517822 154.903473,108.431946 177.561249,94.651672 
z"/>
<path fill="#040300" opacity="1.000000" stroke="none" 
	d="
M0.999999,132.468658 
	C1.646360,133.466522 2.645060,134.879654 2.876711,136.408997 
	C3.771937,142.319168 4.223014,148.299530 5.201460,154.193649 
	C8.156138,171.992477 19.940989,182.809555 38.754787,184.899094 
	C47.341393,185.852753 55.980827,186.323624 64.589676,187.088058 
	C67.545509,187.350525 70.481201,187.839752 73.213043,188.612701 
	C49.081676,189.000000 25.163349,189.000000 1.000000,189.000000 
	C1.000000,170.313156 1.000000,151.625229 0.999999,132.468658 
z"/>
<path fill="#030300" opacity="1.000000" stroke="none" 
	d="
M198.468658,189.000000 
	C199.182739,188.487900 200.335907,187.621368 201.552902,187.519821 
	C211.161530,186.718170 220.851654,186.568451 230.385742,185.262314 
	C254.290237,181.987442 264.798340,170.467361 266.987854,146.300720 
	C267.495026,140.702759 268.471863,135.147339 269.616272,129.786163 
	C270.000000,149.600769 270.000000,169.201523 270.000000,189.000000 
	C246.312805,189.000000 222.625061,189.000000 198.468658,189.000000 
z"/>
<path fill="#030300" opacity="1.000000" stroke="none" 
	d="
M270.000000,56.531342 
	C269.341980,55.554565 268.334229,54.166210 268.087372,52.653679 
	C267.097107,46.585796 266.729431,40.395439 265.428192,34.403107 
	C261.592621,16.740175 250.241440,6.858623 232.265350,5.046177 
	C221.364212,3.947065 210.461594,2.862571 199.779816,1.385755 
	C223.252029,1.000000 246.504044,1.000000 270.000000,1.000000 
	C270.000000,19.353508 270.000000,37.708096 270.000000,56.531342 
z"/>
<path fill="#040300" opacity="1.000000" stroke="none" 
	d="
M69.531342,1.000000 
	C68.816254,1.515614 67.668556,2.361630 66.443146,2.495311 
	C55.207176,3.721046 43.844688,4.177756 32.740395,6.122401 
	C18.401115,8.633574 9.530584,17.964273 6.185952,31.952570 
	C4.109986,40.634911 3.196633,49.595242 1.380719,58.215397 
	C1.000000,39.066208 1.000000,20.132416 1.000000,1.000000 
	C23.687174,1.000000 46.374928,1.000000 69.531342,1.000000 
z"/>
<path fill="#010100" opacity="1.000000" stroke="none" 
	d="
M177.542343,94.998871 
	C154.903473,108.431946 132.283524,121.517822 109.116486,134.920181 
	C109.116486,107.970963 109.116486,81.960175 109.116486,55.014988 
	C132.323257,68.454140 154.942261,81.552910 177.542343,94.998871 
z"/>
</svg>